# AST/ASF file generated using VICON BodyLanguage
# -----------------------------------------------
:version 1.10
:name VICON
:units
  mass 1.0
  length 0.45
  angle deg
:documentation
   .ast/.asf automatically generated from VICON data using
   VICON BodyBuilder and BodyLanguage model FoxedUp or BRILLIANT.MOD
:root
   order TX TY TZ RX RY RZ
   axis XYZ
   position 0 0 0  
   orientation 0 0 0 
:bonedata
  begin
     id 1 
     name lhipjoint
     direction 0.722297 -0.617336 0.311742 
     length 2.6635 
     axis 0 0 0  XYZ
  end
  begin
     id 2 
     name lfemur
     direction 0.34202 -0.939693 0  
     length 7.39349  
     axis 0 0 20  XYZ
    dof rx ry rz
    limits (-160.0 20.0)
           (-70.0 70.0)
           (-60.0 70.0)
  end
  begin
     id 3 
     name ltibia
     direction 0.34202 -0.939693 0   
     length 7.36294   
     axis 0 0 20   XYZ
    dof rx
    limits (-10.0 170.0)
  end
  begin
     id 4 
     name lfoot
     direction 0.104879 -0.288152 0.951824   
     length 2.16981   
     axis -90 7.62852e-016 20   XYZ
    dof rx rz
    limits (-45.0 90.0)
           (-70.0 20.0)
  end
  begin
     id 5 
     name ltoes
     direction 1.53586e-011 -4.21895e-011 1   
     length 1.08218   
     axis -90 7.62852e-016 20   XYZ
    dof rx
    limits (-90.0 20.0)
  end
  begin
     id 6 
     name rhipjoint
     direction -0.75102 -0.589393 0.297631   
     length 2.78977  
     axis 0 0 0  XYZ 
  end
  begin
     id 7 
     name rfemur
     direction -0.34202 -0.939693 0   
     length 7.46076   
     axis 0 0 -20   XYZ
    dof rx ry rz
    limits (-160.0 20.0)
           (-70.0 70.0)
           (-70.0 60.0)
  end
  begin
     id 8 
     name rtibia
     direction -0.34202 -0.939693 0   
     length 7.31726   
     axis 0 0 -20   XYZ
    dof rx
    limits (-10.0 170.0)
 end
 begin
     id 9 
     name rfoot
     direction -0.107991 -0.296704 0.948844   
     length 2.09388  
     axis -90 -7.62852e-016 -20   XYZ
    dof rx rz
    limits (-45.0 90.0)
           (-20.0 70.0)
  end
  begin
     id 10 
     name rtoes
     direction -1.53559e-011 -4.21911e-011 1   
     length 1.04433   
     axis -90 -7.62852e-016 -20   XYZ
    dof rx
    limits (-90.0 20.0)
  end
  begin
     id 11 
     name lowerback
     direction 0.0165164 0.98272 0.184358   
     length 1.71896   
     axis 0 0 0   XYZ
    dof rx ry rz
    limits (-20.0 45.0)
           (-30.0 30.0)
           (-30.0 30.0)
  end
  begin
     id 12 
     name upperback
     direction -0.00887249 0.992297 0.123566   
     length 1.71504   
     axis 0 0 0   XYZ
    dof rx ry rz
    limits (-20.0 45.0)
           (-30.0 30.0)
           (-30.0 30.0)
  end
  begin
     id 13 
     name thorax
     direction -0.0157026 0.998908 0.0440032   
     length 1.77022   
     axis 0 0 0   XYZ
    dof rx ry rz
    limits (-20.0 45.0)
           (-30.0 30.0)
           (-30.0 30.0)
  end
  begin
     id 14 
     name lowerneck
     direction -0.0238856 0.998137 0.0561411   
     length 1.89341   
     axis 0 0 0   XYZ
    dof rx ry rz
    limits (-20.0 45.0)
           (-30.0 30.0)
           (-30.0 30.0)
  end
  begin
     id 15 
     name upperneck
     direction 0.0276574 0.952253 -0.304056   
     length 1.86999   
     axis 0 0 0   XYZ
    dof rx ry rz
    limits (-20.0 45.0)
           (-30.0 30.0)
           (-30.0 30.0)
  end
  begin
     id 16
     name head
     direction 0.00800083 0.994258 -0.106712  
     length 1.91492  
     axis 0 0 0   XYZ
    dof rx ry rz
    limits (-20.0 45.0)
           (-30.0 30.0)
           (-30.0 30.0)
  end
  begin
     id 17 
     name lclavicle
     direction 0.97203 0.225407 0.06595  
     length 3.34889  
     axis 0 0 0   XYZ
    dof ry rz
    limits (-20.0 10.0)
           (0.0 20.0)
  end
  begin
     id 18 
     name lhumerus
     direction 1 -4.48973e-011 2.20267e-027   
     length 4.85645   
     axis 180 -30 -90   XYZ
    dof rx ry rz
    limits (-60.0 90.0)
           (-90.0 90.0)
           (-90.0 90.0)
  end
  begin
     id 19
     name lradius
     direction 1 -4.4897e-011 4.60472e-027   
     length 2.79874   
     axis 180 -30 -90   XYZ
    dof rx
    limits (-10.0 170.0)
  end
  begin
     id 20
     name lwrist
     direction 1 -4.48952e-011 1.14928e-026   
     length 1.39937   
     axis -6.29373e-015 90 90   XYZ
    dof ry
    limits (-180.0 0.0)
 end
  begin
     id 21 
     name lhand
     direction 1 -4.48967e-011 2.29886e-026   
     length 0.573398   
     axis -1.46689e-014 90 90   XYZ
    dof rx rz
    limits (-90.0 90.0)
           (-45.0 45.0)
  end
  begin
     id 22 
     name lfingers
     direction 1 -4.48955e-011 4.59726e-026   
     length 0.462289   
     axis -2.93383e-014 90 90   XYZ
    dof rx
    limits (0.0 90.0)
  end
  begin
     id 23
     name lthumb
     direction 0.707107 -6.34866e-011 0.707107   
     length 0.663757   
     axis -90 45 5.69224e-014   XYZ
    dof rx rz
    limits (-45.0 45.0)
           (-45.0 45.0)
  end
  begin
     id 24 
     name rclavicle
     direction -0.981571 0.157346 0.108443   
     length 3.35257  
     axis 0 0 0   XYZ 
    dof ry rz
    limits (-10.0 20.0)
           (-20.0 0.0)
  end
  begin
     id 25 
     name rhumerus
     direction -1 -4.48967e-011 8.58308e-029  
     length 4.67018   
     axis 180 30 90   XYZ
    dof rx ry rz
    limits (-90.0 60.0)
           (-90.0 90.0)
           (-90.0 90.0)
  end
  begin
     id 26 
     name rradius
     direction -1 -4.48958e-011 4.52548e-027   
     length 2.65534   
     axis 180 30 90   XYZ
    dof rx
    limits (-10.0 170.0)
  end
  begin
     id 27 
     name rwrist
     direction -1 -4.48977e-011 1.14952e-026   
     length 1.32767   
     axis -6.29373e-015 -90 -90   XYZ
    dof ry
    limits (-180.0 0.0)
  end
  begin
     id 28
     name rhand
     direction -1 -4.48924e-011 2.29804e-026   
     length 0.594069   
     axis -1.46689e-014 -90 -90   XYZ
    dof rx rz
    limits (-90.0 90.0)
           (-45.0 45.0)
  end
  begin
     id 29
     name rfingers
     direction -1 -4.48998e-011 4.59888e-026   
     length 0.478954   
     axis -2.93383e-014 -90 -90   XYZ
    dof rx
    limits (0.0 90.0)
  end
  begin
     id 30
     name rthumb
     direction -0.707107 -6.34933e-011 0.707107   
     length 0.687685   
     axis -90 -45 -5.69224e-014   XYZ
    dof rx rz
    limits (-45.0 45.0)
           (-45.0 45.0)
  end
:hierarchy
  begin
    root lhipjoint rhipjoint lowerback
    lhipjoint lfemur
    lfemur ltibia
    ltibia lfoot
    lfoot ltoes
    rhipjoint rfemur
    rfemur rtibia
    rtibia rfoot
    rfoot rtoes
    lowerback upperback
    upperback thorax
    thorax lowerneck lclavicle rclavicle
    lowerneck upperneck
    upperneck head
    lclavicle lhumerus
    lhumerus lradius
    lradius lwrist
    lwrist lhand lthumb
    lhand lfingers
    rclavicle rhumerus
    rhumerus rradius
    rradius rwrist
    rwrist rhand rthumb
    rhand rfingers
  end

#!OML:ASF E:\pregnant2\Project 1\Capture day 1\Session 1\pregnant2.ASF
:FULLY-SPECIFIED
:DEGREES
448
root 4.31377 17.114 11.0486 30.0355 15.3359 1.31251
lowerback -15.5789 3.95995 3.42432
upperback -15.1523 5.0272 -4.38189
thorax -7.00931 2.10685 -6.16036
lowerneck -3.80993 16.0617 25.149
upperneck 24.8141 23.9673 -13.7592
head 13.9264 12.0733 -5.26602
rclavicle -2.75317e-014 -1.59028e-014
rhumerus -56.0727 3.63918 -83.9604
rradius 36.1595
rwrist 11.8307
rhand -11.5673 -11.6103
rfingers 7.12502
rthumb 14.4739 -41.0855
lclavicle -2.75317e-014 -1.59028e-014
lhumerus -69.7789 -38.6728 113.444
lradius 61.1189
lwrist 19.8632
lhand 15.54 28.0891
lfingers 7.12502
lthumb 40.3597 53.2057
rfemur -42.3562 -9.82452 22.7971
rtibia 63.5668
rfoot -8.72354 -17.3899
rtoes 1.49129
lfemur -45.4139 -9.00586 -26.7162
ltibia 28.4582
lfoot -7.60196 11.8653
ltoes -8.36939
449
root 4.33437 17.1144 11.1136 29.977 15.7553 1.20396
lowerback -15.5902 3.92912 3.42063
upperback -15.1575 4.99358 -4.29874
thorax -7.02062 2.09626 -6.07171
lowerneck -3.77792 16.0316 25.0752
upperneck 24.8566 23.9458 -13.7363
head 13.9176 12.0643 -5.25741
rclavicle -2.57426e-014 -1.90833e-014
rhumerus -56.4849 3.4448 -83.7188
rradius 36.3963
rwrist 11.3569
rhand -11.3428 -11.7136
rfingers 7.12502
rthumb 14.6903 -41.1732
lclavicle -2.57426e-014 -1.90833e-014
lhumerus -69.6515 -38.4723 113.378
lradius 60.9844
lwrist 20.0433
lhand 15.8003 28.5113
lfingers 7.12502
lthumb 40.6044 53.5521
rfemur -42.964 -9.73939 22.8353
rtibia 63.8612
rfoot -9.0887 -17.2524
rtoes 0.816586
lfemur -45.2561 -9.06081 -26.5924
ltibia 28.7201
lfoot -7.84123 11.7113
ltoes -9.08198
450
root 4.35474 17.1101 11.1774 29.9074 16.1376 1.10156
lowerback -15.563 3.90717 3.40849
upperback -15.1633 4.97312 -4.22252
thorax -7.05107 2.092 -5.98712
lowerneck -3.82566 16.0183 24.9622
upperneck 24.9643 23.9238 -13.6457
head 13.9354 12.0525 -5.21113
rclavicle -1.40143e-014 3.97569e-015
rhumerus -56.8565 3.29044 -83.5178
rradius 36.6149
rwrist 10.8913
rhand -11.2891 -11.7562
rfingers 7.12502
rthumb 14.742 -41.212
lclavicle -1.40143e-014 3.97569e-015
lhumerus -69.5561 -38.2383 113.316
lradius 60.9405
lwrist 20.3922
lhand 15.696 28.9378
lfingers 7.12502
lthumb 40.5063 54.0091
rfemur -43.5612 -9.60998 22.8314
rtibia 64.0913
rfoot -9.53344 -17.0931
rtoes 0.351988
lfemur -45.1003 -9.10789 -26.485
ltibia 28.9958
lfoot -8.16817 11.5691
ltoes -9.49651
451
root 4.37413 17.1047 11.2421 29.8663 16.5073 1.0195
lowerback -15.5952 3.87703 3.36254
upperback -15.1594 4.94302 -4.15088
thorax -7.04171 2.08714 -5.8847
lowerneck -3.82695 16 24.8999
upperneck 25.0053 23.9123 -13.6323
head 13.9385 12.0454 -5.20197
rclavicle 2.5842e-014 2.8625e-014
rhumerus -57.1384 3.15235 -83.3528
rradius 36.7713
rwrist 10.4697
rhand -11.2113 -11.7437
rfingers 7.12502
rthumb 14.8169 -41.194
lclavicle 2.5842e-014 2.8625e-014
lhumerus -69.4475 -38.0387 113.281
lradius 60.7199
lwrist 20.5624
lhand 15.5711 28.7515
lfingers 7.12502
lthumb 40.389 53.859
rfemur -44.1827 -9.43934 22.8017
rtibia 64.2422
rfoot -9.96796 -16.9861
rtoes -0.598253
lfemur -44.9757 -9.18818 -26.3708
ltibia 29.2821
lfoot -8.62627 11.5331
ltoes -8.97124
452
root 4.39334 17.097 11.3072 29.8314 16.836 0.983325
lowerback -15.6603 3.82547 3.23599
upperback -15.1475 4.89157 -4.05353
thorax -7.015 2.08064 -5.7088
lowerneck -3.78844 15.9819 24.8155
upperneck 25.0552 23.9248 -13.6419
head 13.9435 12.048 -5.19674
rclavicle -4.33848e-014 1.59028e-014
rhumerus -57.4038 3.14027 -83.2183
rradius 36.9364
rwrist 10.0787
rhand -11.1059 -11.808
rfingers 7.12502
rthumb 14.9184 -41.2508
lclavicle -4.33848e-014 1.59028e-014
lhumerus -69.2449 -37.7217 113.185
lradius 60.5945
lwrist 20.8576
lhand 15.4208 28.8958
lfingers 7.12502
lthumb 40.2476 54.0467
rfemur -44.797 -9.2384 22.6937
rtibia 64.334
rfoot -10.5494 -16.9013
rtoes -1.13305
lfemur -44.8522 -9.27125 -26.3084
ltibia 29.6051
lfoot -9.04978 11.4544
ltoes -9.13156
453
root 4.41197 17.0901 11.3712 29.8106 17.1919 0.927961
lowerback -15.7017 3.80541 3.16797
upperback -15.1583 4.87666 -4.00573
thorax -7.01528 2.08392 -5.61878
lowerneck -3.75682 15.9395 24.8139
upperneck 25.0994 23.8948 -13.6754
head 13.9545 12.0367 -5.22124
rclavicle -4.73108e-014 8.74653e-015
rhumerus -57.6867 3.0138 -83.0953
rradius 37.1046
rwrist 9.83383
rhand -11.0469 -11.781
rfingers 7.12502
rthumb 14.9753 -41.2195
lclavicle -4.73108e-014 8.74653e-015
lhumerus -69.1447 -37.4942 113.129
lradius 60.502
lwrist 21.0985
lhand 15.399 29.1993
lfingers 7.12502
lthumb 40.2271 54.3565
rfemur -45.4259 -8.96363 22.5923
rtibia 64.3497
rfoot -11.1239 -16.8819
rtoes -1.47273
lfemur -44.7601 -9.37787 -26.2029
ltibia 29.9325
lfoot -9.45845 11.3756
ltoes -9.25108
454
root 4.43004 17.0803 11.4357 29.8003 17.5088 0.921349
lowerback -15.7579 3.80569 3.06451
upperback -15.165 4.89041 -4.00485
thorax -6.99808 2.10313 -5.55508
lowerneck -3.72084 15.8917 24.8052
upperneck 25.1244 23.8423 -13.6728
head 13.9436 12.0179 -5.23657
rclavicle 3.45885e-014 3.4191e-014
rhumerus -57.9713 2.81523 -82.9955
rradius 37.2826
rwrist 9.6641
rhand -10.9207 -11.9169
rfingers 7.12502
rthumb 15.0968 -41.3464
lclavicle 3.45885e-014 3.4191e-014
lhumerus -69.1263 -37.3171 113.131
lradius 60.3272
lwrist 21.076
lhand 15.2774 28.959
lfingers 7.12502
lthumb 40.1127 54.151
rfemur -46.051 -8.69755 22.4186
rtibia 64.3113
rfoot -11.7161 -16.8509
rtoes -2.16056
lfemur -44.6615 -9.48742 -26.1498
ltibia 30.2662
lfoot -9.87695 11.3099
ltoes -9.3116
455
root 4.44696 17.069 11.4998 29.7931 17.8165 0.92631
lowerback -15.8147 3.78837 2.93629
upperback -15.1663 4.88334 -3.99127
thorax -6.97926 2.11459 -5.46576
lowerneck -3.71672 15.8703 24.771
upperneck 25.1795 23.817 -13.6304
head 13.948 12.0099 -5.22337
rclavicle 1.95803e-014 4.33351e-014
rhumerus -58.2157 2.66549 -82.9295
rradius 37.4326
rwrist 9.58757
rhand -10.9729 -11.8433
rfingers 7.12502
rthumb 15.0466 -41.2765
lclavicle 1.95803e-014 4.33351e-014
lhumerus -69.1271 -37.1621 113.19
lradius 59.9965
lwrist 20.8026
lhand 14.8815 27.7805
lfingers 7.12502
lthumb 39.7401 53.0844
rfemur -46.6717 -8.38336 22.2121
rtibia 64.2155
rfoot -12.2446 -16.8574
rtoes -2.6803
lfemur -44.5591 -9.57125 -26.1257
ltibia 30.6006
lfoot -10.293 11.236
ltoes -9.42104
456
root 4.46409 17.058 11.5658 29.7699 18.1151 0.953826
lowerback -15.8875 3.75151 2.77908
upperback -15.1416 4.85299 -3.95011
thorax -6.92856 2.11922 -5.33005
lowerneck -3.71559 15.8495 24.7121
upperneck 25.2197 23.8105 -13.6419
head 13.9563 12.0034 -5.22341
rclavicle -9.64106e-015 3.02153e-014
rhumerus -58.3632 2.62049 -82.889
rradius 37.533
rwrist 9.51888
rhand -10.9657 -11.812
rfingers 7.12502
rthumb 15.0536 -41.2447
lclavicle -9.64106e-015 3.02153e-014
lhumerus -68.9819 -36.9312 113.126
lradius 59.8472
lwrist 20.8483
lhand 14.9071 27.5738
lfingers 7.12502
lthumb 39.7642 52.8706
rfemur -47.259 -8.07068 21.9585
rtibia 64.0603
rfoot -12.8448 -16.8826
rtoes -3.08491
lfemur -44.4146 -9.65655 -26.1224
ltibia 30.9222
lfoot -10.7445 11.1469
ltoes -9.51234
